<svg xmlns="http://www.w3.org/2000/svg" viewBox="0 0 64 64">
  <defs>
    <linearGradient id="badge-21" x1="8" y1="8" x2="56" y2="56">
      <stop stop-color="#123541"/>
      <stop offset="1" stop-color="#061923"/>
    </linearGradient>
  </defs>
  <path d="M32 3 54 11l7 22-9 21-20 7-20-7-9-21 7-22L32 3Z" fill="url(#badge-21)" stroke="#586fc8" stroke-width="2"/>
  <circle cx="32" cy="32" r="24" fill="none" stroke="#59cde8" stroke-width="1.3" opacity=".52" stroke-dasharray="4 4" transform="rotate(267 32 32)"/>
  <path d="M11 29c6 0 6-6 12-6s6 6 12 6 6-6 12-6 6 6 8 6M9 38c6 0 6-6 12-6s6 6 12 6 6-6 12-6 6 6 10 6M13 47c6 0 6-6 12-6s6 6 12 6 6-6 13-6" fill="none" stroke="#59cde8" stroke-width="3" stroke-linecap="round"/>
  <circle cx="26" cy="10" r="2" fill="#59cde8" opacity=".9"/>
</svg>
