<svg xmlns="http://www.w3.org/2000/svg" width="96" height="96" viewBox="0 0 96 96">
  <defs>
    <linearGradient id="globe" x1="0" y1="0" x2="1" y2="1">
      <stop stop-color="#6ff2ff"/>
      <stop offset="1" stop-color="#20a8cf"/>
    </linearGradient>
    <linearGradient id="gold" x1="0" y1="0" x2="1" y2="1">
      <stop stop-color="#ffe15a"/>
      <stop offset="1" stop-color="#f39b08"/>
    </linearGradient>
  </defs>

  <g fill="none" stroke="url(#globe)" stroke-width="4"
     stroke-linecap="round" stroke-linejoin="round">
    <circle cx="45" cy="52" r="27"/>
    <ellipse cx="45" cy="52" rx="12" ry="27"/>
    <path d="M20 43h50M20 61h50"/>
  </g>

  <path fill="url(#gold)"
        d="M72 8c1.8 8.2 5.8 12.2 14 14-8.2 1.8-12.2 5.8-14 14-1.8-8.2-5.8-12.2-14-14 8.2-1.8 12.2-5.8 14-14Z"/>
  <path fill="#76c52b"
        d="M18 19c1 4.5 3.5 7 8 8-4.5 1-7 3.5-8 8-1-4.5-3.5-7-8-8 4.5-1 7-3.5 8-8Z"/>
</svg>
