<svg xmlns="http://www.w3.org/2000/svg" width="160" height="160" viewBox="0 0 160 160">
 <defs><linearGradient id="b" x2="1" y2="1"><stop stop-color="#12b6c9"/><stop offset="1" stop-color="#064761"/></linearGradient></defs>
 <circle cx="80" cy="80" r="78" fill="url(#b)"/><circle cx="80" cy="76" r="47" fill="#f2ae78"/>
 <path d="M33 72Q33 23 80 22q47 1 47 50l-13-8-5-23Q79 61 46 46L43 70z" fill="#3a2119"/>
 <path d="M39 146q5-38 41-38t41 38" fill="#153e63"/><path d="M57 118l23 19 23-19" fill="#fff"/>
 <path d="M54 79q8-7 16 0M90 79q8-7 16 0" fill="none" stroke="#4b2922" stroke-width="4" stroke-linecap="round"/>
 <circle cx="62" cy="83" r="3" fill="#202535"/><circle cx="98" cy="83" r="3" fill="#202535"/>
 <path d="M65 98q15 13 30 0" fill="none" stroke="#a64d43" stroke-width="4" stroke-linecap="round"/>
 <circle cx="80" cy="80" r="77" fill="none" stroke="#61efff" stroke-width="3"/>
</svg>
